<svg width="443" height="562" viewBox="0 0 443 562" fill="none" xmlns="http://www.w3.org/2000/svg">
<path fill-rule="evenodd" clip-rule="evenodd" d="M203.249 552.659L384.921 489.263C419.395 477.23 442.557 444.573 442.557 407.999C442.557 385.026 433.622 363.427 417.399 347.178C408.269 338.035 397.039 330.967 384.921 326.737L203.248 263.341C187.103 257.708 170.17 254.851 152.919 254.851C68.5996 254.851 2.03852e-06 323.554 0 408C-1.78633e-06 448.907 15.9068 487.366 44.7895 516.293C73.6716 545.218 112.073 561.149 152.919 561.149C170.169 561.149 187.102 558.293 203.249 552.659ZM153.195 485.854C195.991 485.854 230.683 451.161 230.683 408.366C230.683 365.57 195.991 330.877 153.195 330.877C110.399 330.877 75.7065 365.57 75.7065 408.366C75.7065 451.161 110.399 485.854 153.195 485.854Z" fill="url(#paint0_linear)"/>
<ellipse cx="152.411" cy="409" rx="80" ry="80.5" fill="url(#paint1_linear)"/>
<path fill-rule="evenodd" clip-rule="evenodd" d="M152.411 0C153.791 0 154.911 1.11929 154.911 2.5L154.911 64.1609L178.844 69.5936L175.994 14.7369C175.923 13.3581 176.982 12.1822 178.361 12.1106C179.74 12.039 180.916 13.0987 180.987 14.4775L183.91 70.7436L198.753 74.1129C200.1 74.4185 200.944 75.7578 200.638 77.1043C200.332 78.4507 198.993 79.2945 197.647 78.9888L184.18 75.932L184.383 79.833L169.132 155.543C169.154 155.676 169.165 155.812 169.165 155.951C169.165 156.441 169.024 156.897 168.781 157.283L168.638 157.991L187.159 285.392C187.358 286.758 186.411 288.027 185.045 288.226C183.679 288.424 182.41 287.478 182.211 286.111L174.021 229.77L154.911 233.454L154.911 295.5C154.911 296.881 153.791 298 152.411 298C151.03 298 149.911 296.881 149.911 295.5L149.911 233.494L131.138 229.876L122.963 286.111C122.764 287.478 121.495 288.424 120.129 288.226C118.763 288.027 117.816 286.758 118.015 285.392L126.463 227.278C126.422 227.005 126.425 226.719 126.481 226.432C126.521 226.224 126.586 226.027 126.671 225.843L136.535 157.991L120.791 79.833L121.001 75.8026L106.964 78.9888C105.618 79.2945 104.278 78.4507 103.973 77.1043C103.667 75.7578 104.511 74.4185 105.857 74.1129L121.27 70.6143L124.186 14.4775C124.258 13.0987 125.434 12.039 126.813 12.1106C128.192 12.1822 129.251 13.3581 129.18 14.7369L126.337 69.4642L149.911 64.113L149.911 2.5C149.911 1.11929 151.03 0 152.411 0ZM170.993 120.983L164.453 153.451H154.911V115.547L170.993 120.983ZM149.911 115.476V153.451H140.721L134.145 120.805L149.911 115.476ZM149.911 158.451H141.521L131.858 224.922L149.911 228.402L149.911 158.451ZM163.653 158.451H154.911L154.911 228.362L173.301 224.817L163.653 158.451ZM178.646 82.9927L171.988 116.042L154.911 110.269V82.9927H178.646ZM179.28 77.9927H154.911V69.288L179.113 74.7819L179.28 77.9927ZM149.911 77.9927V69.2402L126.067 74.6526L125.894 77.9927H149.911ZM149.911 82.9927H126.528L133.15 115.864L149.911 110.198V82.9927Z" fill="#5E4DA9"/>
<defs>
<linearGradient id="paint0_linear" x1="77.9221" y1="249.5" x2="221.03" y2="631.406" gradientUnits="userSpaceOnUse">
<stop stop-color="#8A66E0"/>
<stop offset="1" stop-color="#212A5D"/>
</linearGradient>
<linearGradient id="paint1_linear" x1="152.411" y1="328.5" x2="152.411" y2="560.026" gradientUnits="userSpaceOnUse">
<stop stop-color="#FD9686"/>
<stop offset="0.622769" stop-color="#8A66E0"/>
<stop offset="0.859573" stop-color="#212A5D"/>
<stop offset="1" stop-color="#000001"/>
</linearGradient>
</defs>
</svg>
