<svg id="Layer_1" data-name="Layer 1" xmlns="http://www.w3.org/2000/svg" viewBox="0 0 180 107.6"><defs><style>.cls-1{fill:#230d0d;}.cls-2{fill:#fff;}.cls-3{fill:none;}</style></defs><title>BBB_Logo</title><path class="cls-1" d="M194.53,84c0.66-.11,1.3-0.18,1.94-0.23L184.6,12.34c-0.62.16-1.25,0.3-1.91,0.41-5.71,1-10.71-.53-11.17-3.31a2.65,2.65,0,0,1,0-1L26,32.64c0.46,2.78-3.79,5.79-9.5,6.75l12.1,72.79c4.45-.13,8,1.27,8.36,3.58a2.77,2.77,0,0,1,0,.28L185.26,91.37a2.59,2.59,0,0,1-.23-0.68C184.57,87.92,188.82,84.9,194.53,84Z" transform="translate(-16.47 -8.43)"/><path class="cls-2" d="M84.12,58.23l-3.35.56-1.66-10,3.35-.56a2,2,0,0,1,2.44,1.66l0.22,1.33A1.45,1.45,0,0,1,84.26,53a1.48,1.48,0,0,1,1.37,1.38l0.25,1.51A2,2,0,0,1,84.12,58.23Zm-1.34-7.69a0.4,0.4,0,0,0-.49-0.41l-0.57.09,0.39,2.39,0.57-.1A0.4,0.4,0,0,0,83,52Zm0.66,4A0.41,0.41,0,0,0,83,54.09l-0.57.09,0.4,2.42,0.57-.09A0.4,0.4,0,0,0,83.68,56Z" transform="translate(-16.47 -8.43)"/><path class="cls-2" d="M88.59,57.48l-1.66-10,4.89-.82,0.32,1.94L89.56,49l0.35,2.07,1.68-.28,0.29,1.72-1.68.28,0.37,2.22,2.58-.43,0.34,2Z" transform="translate(-16.47 -8.43)"/><path class="cls-2" d="M99.08,55.74l-0.4-1.48-1.37.23,0,1.54-2.09.35,0.08-10.28L98,45.65l3.37,9.71ZM97.19,49l0.09,3.71,0.9-.15Z" transform="translate(-16.47 -8.43)"/><path class="cls-2" d="M106.17,54.79a2.79,2.79,0,0,1-3.44-2.25l-0.82-4.95a2.8,2.8,0,0,1,2.53-3.24,2.51,2.51,0,0,1,3.11,2.16l0.22,1.32-2,.34-0.22-1.35a0.59,0.59,0,0,0-.75-0.49,0.58,0.58,0,0,0-.53.71l0.88,5.28a0.57,0.57,0,0,0,.73.5,0.59,0.59,0,0,0,.55-0.71l-0.23-1.35,2-.34,0.22,1.32A2.51,2.51,0,0,1,106.17,54.79Z" transform="translate(-16.47 -8.43)"/><path class="cls-2" d="M114.76,53.13l-0.63-3.81-1.35.23,0.63,3.81-2.31.39-1.66-10,2.31-.39,0.69,4.14,1.35-.22-0.69-4.14,2.3-.38,1.66,10Z" transform="translate(-16.47 -8.43)"/><path class="cls-2" d="M126.49,51.18l-3.35.56-1.66-10,3.35-.56a2,2,0,0,1,2.43,1.66l0.22,1.33a1.45,1.45,0,0,1-.85,1.74A1.49,1.49,0,0,1,128,47.31l0.25,1.51A2,2,0,0,1,126.49,51.18Zm-1.34-7.69a0.4,0.4,0,0,0-.49-0.41l-0.57.1,0.4,2.38,0.57-.09a0.4,0.4,0,0,0,.33-0.55Zm0.66,4a0.41,0.41,0,0,0-.49-0.42l-0.57.1,0.4,2.42,0.57-.09a0.4,0.4,0,0,0,.33-0.55Z" transform="translate(-16.47 -8.43)"/><path class="cls-2" d="M131,50.44l-1.66-10,2.31-.38,1.33,8,2.45-.41,0.33,2Z" transform="translate(-16.47 -8.43)"/><path class="cls-2" d="M141.13,48.75l-0.4-1.48-1.37.23,0,1.53-2.09.35L137.4,39.1l2.67-.45,3.37,9.71ZM139.25,42l0.09,3.72,0.9-.15Z" transform="translate(-16.47 -8.43)"/><path class="cls-2" d="M149.46,47.36l-2-3.44-0.8-1.32,0.84,5.09-2,.34-1.66-10,2-.34,1.94,3.5,0.78,1.33-0.86-5.15,2-.34,1.66,10Z" transform="translate(-16.47 -8.43)"/><path class="cls-2" d="M157.49,46L156,42.38l-0.27,1.37,0.42,2.51-2.31.38-1.66-10,2.31-.39,0.72,4.32L155.77,36l2.23-.37-0.75,4.4,2.58,5.57Z" transform="translate(-16.47 -8.43)"/><path class="cls-2" d="M161.84,45.3l-1.66-10,4.89-.81,0.32,1.93-2.58.43,0.35,2.07,1.68-.28,0.29,1.73-1.68.28,0.37,2.22,2.58-.43,0.34,2Z" transform="translate(-16.47 -8.43)"/><path class="cls-2" d="M171.23,35.51l1.33,8-2.31.38-1.33-8-1.62.27-0.33-2,5.57-.93,0.33,2Z" transform="translate(-16.47 -8.43)"/><path class="cls-2" d="M80.27,44.63a1.92,1.92,0,0,1-2.45-1.53l-0.05-.34,1.3-.22,0,0.22a0.75,0.75,0,0,0,.94.72,0.69,0.69,0,0,0,.63-0.87c-0.08-.48-0.5-0.71-1.34-1s-1.8-.68-2-1.7a2,2,0,0,1,1.76-2.28,1.91,1.91,0,0,1,2.34,1.54l0,0.27-1.29.21,0-.21a0.73,0.73,0,0,0-.88-0.67,0.64,0.64,0,0,0-.58.77c0.08,0.47.5,0.67,1.42,1s1.75,0.77,1.91,1.73A2,2,0,0,1,80.27,44.63Z" transform="translate(-16.47 -8.43)"/><path class="cls-2" d="M87.45,37.69l0.9,5.43-1.42.23L86,37.92l-1.44.24-0.2-1.21,4.29-.72,0.2,1.22Z" transform="translate(-16.47 -8.43)"/><path class="cls-2" d="M93.22,42.31l-1.11-6.64,3.7-.62,0.2,1.2-2.27.38L94,38.08l1.57-.26,0.18,1.08-1.56.26,0.28,1.67,2.27-.38,0.21,1.25Z" transform="translate(-16.47 -8.43)"/><path class="cls-2" d="M103.16,40.65l-1.36.23L99,34.52l1.46-.25,1.72,4.36L102.4,34l1.4-.23Z" transform="translate(-16.47 -8.43)"/><path class="cls-2" d="M108.25,39.81l-1.11-6.65,3.71-.62,0.2,1.2-2.28.38L109,35.58l1.57-.26,0.18,1.08-1.56.26,0.28,1.66,2.27-.37L112,39.19Z" transform="translate(-16.47 -8.43)"/><path class="cls-2" d="M122.08,37.68a1.91,1.91,0,0,1-2.44-1.53l-0.06-.34,1.31-.22,0,0.22a0.75,0.75,0,0,0,.94.72,0.69,0.69,0,0,0,.64-0.87c-0.08-.48-0.51-0.71-1.34-1a2.44,2.44,0,0,1-2-1.7,1.94,1.94,0,0,1,1.76-2.28,1.91,1.91,0,0,1,2.34,1.54l0,0.27-1.29.22,0-.21a0.73,0.73,0,0,0-.88-0.67,0.64,0.64,0,0,0-.58.77c0.08,0.47.5,0.67,1.42,1s1.75,0.77,1.91,1.73A2,2,0,0,1,122.08,37.68Z" transform="translate(-16.47 -8.43)"/><path class="cls-2" d="M127.77,36.56l-1.11-6.64,1.43-.24,1.1,6.64Z" transform="translate(-16.47 -8.43)"/><path class="cls-2" d="M133,35.69L131.91,29l1.42-.24,0.9,5.42,2.18-.36,0.2,1.23Z" transform="translate(-16.47 -8.43)"/><path class="cls-2" d="M142.16,34.17l-1.35.23L138,28l1.47-.24,1.72,4.36,0.21-4.69,1.4-.23Z" transform="translate(-16.47 -8.43)"/><path class="cls-2" d="M147.25,33.32l-1.11-6.64,3.71-.62,0.2,1.19-2.28.38L148,29.09l1.57-.26,0.18,1.08-1.57.26,0.28,1.66,2.28-.38,0.2,1.25Z" transform="translate(-16.47 -8.43)"/><path class="cls-2" d="M158.14,31.55a0.83,0.83,0,0,1-1-.88L157,29.58a0.59,0.59,0,0,0-.7-0.55l-0.77.13L156,31.87l-1.43.23-1.11-6.65,2.4-.4a1.56,1.56,0,0,1,2,1.29L158,27.07a1.07,1.07,0,0,1-.67,1.25,1.13,1.13,0,0,1,1.07,1l0.18,1.08a0.87,0.87,0,0,0,.39.63L159,31.41Zm-1.67-4.89a0.46,0.46,0,0,0-.6-0.45l-0.81.14,0.3,1.82,0.75-.13a0.52,0.52,0,0,0,.47-0.68Z" transform="translate(-16.47 -8.43)"/><path class="cls-2" d="M161.52,26.58l-0.05-.33a0.61,0.61,0,0,0,.5-0.81l-0.51.08-0.23-1.36,1.11-.18,0.2,1.22A1.14,1.14,0,0,1,161.52,26.58Z" transform="translate(-16.47 -8.43)"/><path class="cls-2" d="M169,29.88a1.92,1.92,0,0,1-2.45-1.53L166.54,28l1.31-.22,0,0.22a0.75,0.75,0,0,0,.94.72,0.69,0.69,0,0,0,.64-0.87c-0.08-.48-0.51-0.71-1.34-1a2.44,2.44,0,0,1-2-1.7,2,2,0,0,1,1.76-2.28,1.91,1.91,0,0,1,2.33,1.54l0,0.27-1.28.21,0-.21a0.73,0.73,0,0,0-.88-0.67,0.64,0.64,0,0,0-.58.77c0.08,0.47.5,0.66,1.42,1s1.75,0.77,1.91,1.73A2,2,0,0,1,169,29.88Z" transform="translate(-16.47 -8.43)"/><path class="cls-3" d="M92.43,71.49l-0.68-4.07a1.13,1.13,0,0,0-1.38-1.18l-1.63.27,1.13,6.8L91.5,73A1.14,1.14,0,0,0,92.43,71.49Z" transform="translate(-16.47 -8.43)"/><path class="cls-3" d="M42.18,79.84L41.5,75.77a1.13,1.13,0,0,0-1.38-1.18l-1.63.27,1.13,6.81,1.63-.28A1.14,1.14,0,0,0,42.18,79.84Z" transform="translate(-16.47 -8.43)"/><path class="cls-3" d="M94.32,82.87l-0.69-4.16a1.15,1.15,0,0,0-1.38-1.18l-1.63.27,1.15,6.89,1.63-.27A1.13,1.13,0,0,0,94.32,82.87Z" transform="translate(-16.47 -8.43)"/><path class="cls-3" d="M149.23,75.28a1.41,1.41,0,0,0,1.26-1.66L147.89,58a1.41,1.41,0,0,0-1.73-1.17,1.45,1.45,0,0,0-1.31,1.67l2.61,15.66A1.45,1.45,0,0,0,149.23,75.28Z" transform="translate(-16.47 -8.43)"/><path class="cls-3" d="M44.07,91.22l-0.69-4.15A1.15,1.15,0,0,0,42,85.89l-1.63.27,1.15,6.89,1.63-.27A1.13,1.13,0,0,0,44.07,91.22Z" transform="translate(-16.47 -8.43)"/><polygon class="cls-3" points="149.45 54.31 151.79 68.4 157.28 67.49 151.74 58.06 149.45 54.31"/><path class="cls-2" d="M168.9,47.86l2.44,14.68-2.22-3.81-5.53-10-5.82,1,4.67,28.09-8,1.34a7.17,7.17,0,0,0,2.76-7l-2.48-14.9c-0.73-4.41-4.82-6.8-9.45-6s-7.76,4.37-7,8.77l2.48,14.9a7.15,7.15,0,0,0,4.9,5.75l-7,1.16-0.88-5.27-7,1.16-3.79-22.82-6.59,1.1L125,84l-9,1.5-1.89-11.4,3.31-17.7-6.51,1.08L110.15,68l-4.41-9.6L99,59.48l8.51,15.74,1.89,11.4L98,88.52a5.34,5.34,0,0,0,2.65-5.9L99.89,78.3A4.22,4.22,0,0,0,96,74.37c2.39-1,2.74-3.1,2.43-5l-0.63-3.81c-0.65-3.89-3.78-5.27-6.95-4.74l-9.54,1.58L86,90.52,83,91c-1.41-2.93-6-11.33-13.33-13,0,0-1.05-4.29-3.78-5.42a1.21,1.21,0,0,1-.62-1.27,21.83,21.83,0,0,1,1-2.93c0.13,0.59,1.47.37,1.29,0a1.21,1.21,0,0,0,.66.47c0.33,1.2,1.28,5,1.28,5L69,74,69,74.4l0.6-.1a4.55,4.55,0,0,0,.11.68,1,1,0,0,0,1.16.84c0.66,0.53.75,0.23,0.75,0.26a1.7,1.7,0,0,0-.21-0.64,1.82,1.82,0,0,1,.88-0.12c1,0.9,1,.67,1,0.69,0.33-.15,0-0.45,0-0.42,0.85,0.08.58-.38,0.6-0.42a3,3,0,0,1-1.56-.35,1.69,1.69,0,0,1-1.63-.3l-0.07-.45,0.6-.1,0-.28-0.6.1L70,68.65a6.8,6.8,0,0,1-.64-1c1.25-.24.61-1.55,0.64-1.59a1.33,1.33,0,0,0,1.39-.29A1,1,0,0,0,71.26,64c-0.55.54-1-.22-1-0.22-0.43-.66-1.42-0.11-1.42-0.11a1.14,1.14,0,0,0-1.66-.3,1.45,1.45,0,0,0-1.51-1.36,3,3,0,0,0-1.49.7c-1,.29-0.94-0.86-1-0.93,0.8,0.49,1-.05,1.05,0a1.11,1.11,0,0,0-.58-1.36,2.12,2.12,0,0,1,.21-0.75,0.2,0.2,0,0,1,0,0,2.85,2.85,0,0,0-.08-0.53,1.21,1.21,0,0,0,.91-1.1c1.52,0,1.55-.85,1.55-0.87,0.22-1.2,1.82-.19,1.83-0.14a1.73,1.73,0,0,0-.57-1.34c1.64-.84,3.22,1.19,3.21,1.21,0.46-.94-0.72-1.81-0.74-1.81,1.39-.31,2.38,1.32,2.41,1.34a1.71,1.71,0,0,0-.74-2.13c2.92,0.25,3.45,2,3.46,2.11,0.27-2.15-.66-2.54-0.69-2.56,1.85-.1,3.49,1.92,3.47,1.94C77.4,51.45,73,52.3,73,52.29l-0.87.18A1.59,1.59,0,0,0,71,51.72c0.6-.94,3,0.33,3,0.35a3,3,0,0,0-1.31-1.86c1.24-.32,3.26,1,3.26,1.08,0.05-.92-1.39-2.17-1.39-2.18,1.22-.51,3.45,1.19,3.45,1.19-2.36-4.56-6.7-2.18-6.7-2.18l-0.22-1.34a0.46,0.46,0,0,0,.66-0.38,0.62,0.62,0,0,1-.9-0.33,1.71,1.71,0,0,1-.06-0.33c0.59,0,.55-0.39.55-0.41a1.17,1.17,0,0,1-1-.26,1,1,0,0,1,0-.27c0.81,0,.59-0.42.61-0.42-0.88.35-1.24-1.26-1.24-1.26a0.46,0.46,0,0,0-.18,0c0,1.64-1.13,1.45-1.13,1.42a0.6,0.6,0,0,0,.72.24,1.3,1.3,0,0,0,.08.47l-1,.64-1-6.68-0.47.08,0.07,0.4-1.38.23-0.09-.57-0.38.06-0.37.51,1.27,9.56-0.89-3.3-0.33.07L64.26,44.6,64,44.67l-0.24-1.13-0.35.08-0.23-1-0.51.08,0.17,1-0.31.05L62.73,45l-0.29,0,0.32,1.7-0.27,0,1,4.18L63.18,51,61,45.63l-1.54-6.39-1,.16L56,33.5l-0.29,0,0.64,6.31-0.89.29,1.49,6.18,0.52,4.78L57,51.18,56,46.7l-0.35.06-0.1-.62-1.77.29,0.11,0.69-0.13,0,0.62,3.73L52,43.4l-0.6-.06,0,0.31-1,.22-0.07-.33-0.23.09-0.38.59,2,6.4-2.62.43,0.09,0.51-0.65.11L49.12,55,49,55.08c-4.16-2.13-5,.74-5,0.79a1.9,1.9,0,0,1,2.25-.36,1.63,1.63,0,0,0-.72,1.2,1.72,1.72,0,0,1,2.13-.36,1.75,1.75,0,0,0-.58.92c-3.87-.06-4.53,3.08-4.5,3.13a3.18,3.18,0,0,1,2.61-1.55c-0.74,1.3-.53,1.35-0.51,1.37,1.37-1.86,2.42-1.44,2.42-1.44a10,10,0,0,0-1.15.86c-4.39,3.67-2,6.79-2.05,6.79a4.38,4.38,0,0,1,1.2-3.21,2.61,2.61,0,0,0,.9,2,3.83,3.83,0,0,1,.74-3.36c0.15,1.44.63,1.63,0.74,1.7a3.5,3.5,0,0,1,1-3.18c0.18,1,.36,1.35.45,1.34,0.21-1.77,1-2.06,1-2.05,0.75-.44.37,0.42,0.33,0.43-2.28,4.12-.71,5.87-0.65,6a4.82,4.82,0,0,1,1.15-3.21,1.89,1.89,0,0,0,.79,1.7c-0.4-1.58,1.39-3.34,1.44-3.42,0.14,1.38.52,1.49,0.53,1.54-0.13-2.11,2.67-3.41,2.63-3.4a1.48,1.48,0,0,0,.12,1.53c0-.82,1.14-1.88,1.14-1.92,0.22,0.51,1.26.15,1.3,0.1a0.85,0.85,0,0,0,.71.49,2,2,0,0,0,0,.51l0,0.05h0.05a2.64,2.64,0,0,0,1.21,1.28A0.75,0.75,0,0,0,60,62c0.12,1.32,1.35.42,1.34,0.35,0.25,1.91-.81,2.25-0.81,2.29-1.6.81-1.34,2-1.31,2a1,1,0,0,0-1,1c-1.84-.43-1.09,1.17-1.12,1.18a0.7,0.7,0,0,0-1,.33C55.85,70.91,58,70.36,58,70.29a1.46,1.46,0,0,0,2,.73c0.17-.05.18,0.21,0.18,0.27v0a9.32,9.32,0,0,0-1.25,2.05c-0.25.5-1,2.32-1,2.32l-0.51-.41-0.16.35,0.52,0.43c-0.21.44-.32,0.68-0.32,0.68L57,76.37l-0.18.35a1.51,1.51,0,0,0,.46.33,1.34,1.34,0,0,1-.83.56c-1.8-.16-2.78.69-2.74,0.79-0.41.79,0.38,0.28,0.38,0.31-0.28.7,0.16,0.44,0.16,0.5a1.5,1.5,0,0,1,1.48-.77c-0.28.57,0.19,0.4,0.19,0.4a0.84,0.84,0,0,1,.72-0.42,1.56,1.56,0,0,0,1.37-1l0.43,0.38,0.29-.23a6.15,6.15,0,0,0-.51-0.44c0.13-.2.42-0.59,0.42-0.59L59.09,77l0.16-.28a5.63,5.63,0,0,0-.47-0.42,17.59,17.59,0,0,1,2.49-3.06v0a3.15,3.15,0,0,1,.57,1.16,21.47,21.47,0,0,0-2.62,5.33s-6.56,3.77-7.88,16.51l-3.63.61A5.36,5.36,0,0,0,50.36,91l-0.72-4.32a4.22,4.22,0,0,0-3.91-3.93c2.39-1,2.74-3.1,2.43-5l-0.63-3.8c-0.65-3.9-3.78-5.27-6.95-4.74L31,70.78l4.67,28.09,0.07,0.42,0.69,4.16L180.11,79.57l-0.69-4.16L179.35,75,174.68,46.9Zm-24,10.59a1.45,1.45,0,0,1,1.31-1.67A1.41,1.41,0,0,1,147.89,58l2.6,15.67a1.41,1.41,0,0,1-1.26,1.66,1.45,1.45,0,0,1-1.78-1.16ZM88.74,66.51l1.63-.27a1.13,1.13,0,0,1,1.38,1.18l0.68,4.07A1.14,1.14,0,0,1,91.5,73l-1.63.27Zm1.88,11.3,1.63-.27a1.15,1.15,0,0,1,1.38,1.18l0.69,4.16a1.13,1.13,0,0,1-.92,1.56l-1.63.27ZM38.49,74.87l1.63-.27a1.13,1.13,0,0,1,1.38,1.18l0.68,4.06a1.14,1.14,0,0,1-.92,1.56l-1.63.28Zm1.88,11.3L42,85.89a1.15,1.15,0,0,1,1.38,1.18l0.69,4.15a1.13,1.13,0,0,1-.93,1.56l-1.63.27Zm127.89-9.33-2.34-14.09,2.29,3.75,5.54,9.43Z" transform="translate(-16.47 -8.43)"/><path class="cls-2" d="M185.53,78.73a2.26,2.26,0,1,1,1.84-2.61A2.23,2.23,0,0,1,185.53,78.73Zm-0.71-4.14a1.94,1.94,0,1,0,2.2,1.59A1.87,1.87,0,0,0,184.82,74.59Zm1.27,2.78c-0.29,0-.41,0-0.45-0.26l0-.23a0.25,0.25,0,0,0-.32-0.25l-0.38.07L185,77.53l-0.38.06-0.34-2,0.81-.14a0.51,0.51,0,0,1,.69.45v0a0.38,0.38,0,0,1-.26.49,0.4,0.4,0,0,1,.42.36L186,77c0,0.06.05,0.08,0.13,0.07l0,0.27ZM185.43,76a0.22,0.22,0,0,0-.29-0.2l-0.39.07,0.1,0.58,0.36-.06a0.25,0.25,0,0,0,.23-0.33V76Z" transform="translate(-16.47 -8.43)"/></svg>