<svg width="2000" height="973" viewBox="0 0 2000 973" fill="none" xmlns="http://www.w3.org/2000/svg">
<path d="M365 654.5C114.589 630.5 35.962 698.184 -50 719.184V973.5H2015V821.184C2010.02 790.517 2172.69 600.567 2001.5 654.5C1719 743.5 1479.64 640 1296.5 640C1113.36 640 994.136 719.184 811 719.184C627.864 719.184 615.411 678.5 365 654.5Z" fill="url(#paint0_linear)"/>
<path fill-rule="evenodd" clip-rule="evenodd" d="M895 697.5H873.5V695.5H895V697.5ZM896 697.5H899V698.5H894.5V730H905.5V729V728.882L905.553 728.776L907.472 724.938C907.154 724.979 906.829 725 906.5 725C902.358 725 899 721.642 899 717.5C899 713.358 902.358 710 906.5 710C906.946 710 907.382 710.039 907.806 710.113C909.044 707.673 911.576 706 914.5 706C915.971 706 917.342 706.423 918.5 707.155C919.658 706.423 921.029 706 922.5 706C926.287 706 929.418 708.806 929.927 712.453C930.73 712.16 931.596 712 932.5 712C933.138 712 933.758 712.08 934.35 712.23C935.312 709.197 938.149 707 941.5 707C944.313 707 946.764 708.549 948.048 710.84C949.081 710.303 950.255 710 951.5 710C954.313 710 956.764 711.549 958.048 713.84C959.081 713.303 960.255 713 961.5 713C965.642 713 969 716.358 969 720.5C969 724.642 965.642 728 961.5 728C959.579 728 957.827 727.278 956.5 726.09V727.3V727.623L956.205 727.756L950.5 730.323V732.861L951.929 735.243L952 735.361V735.5V738.374C1024.47 741.919 1077.11 755.688 1129.75 769.457C1190.84 785.435 1251.92 801.413 1344 801.413C1434.79 801.413 1481.31 786.433 1535.33 769.042C1590.87 751.157 1654.34 730.723 1782 721.413C1859.18 727.875 1932.98 744.977 1999.36 760.359C2031.46 767.798 2061.83 774.835 2090 780.072L2104 973.413H-72V858.115C-66.989 834.651 -39.5 737.072 143 780.072C284.483 813.408 487.953 786.097 664.045 762.462C724.655 754.327 782.021 746.627 832.5 741.986V734.727L828.671 731.376L828.5 731.227V731V726.934C824.831 726.445 822 723.303 822 719.5C822 715.993 824.406 713.049 827.658 712.228C826.032 710.852 825 708.797 825 706.5C825 702.358 828.358 699 832.5 699C833.138 699 833.758 699.08 834.35 699.23C835.312 696.197 838.149 694 841.5 694C844.884 694 847.745 696.242 848.679 699.321C849.139 699.461 849.581 699.644 850 699.865C851.045 699.313 852.236 699 853.5 699C857.112 699 860.127 701.553 860.84 704.952C861.923 704.346 863.171 704 864.5 704C868.642 704 872 707.358 872 711.5C872 715.642 868.642 719 864.5 719C864.193 719 863.89 718.981 863.592 718.946C862.578 721.887 859.786 724 856.5 724C855.349 724 854.258 723.741 853.283 723.277C851.985 724.353 850.318 725 848.5 725C848.161 725 847.827 724.977 847.5 724.934V730H874.5V698.5H869V697.5H872.5V695.5H869V694.5H872.5V676H873.5V694.5H895V676H896V694.5H899V695.5H896V697.5ZM833.5 741.894C836.695 741.602 839.862 741.323 843 741.056V734.603L841.54 731.197L841.5 731.103V731V727.376C840.581 727.777 839.567 728 838.5 728C837.433 728 836.419 727.777 835.5 727.376V729.7V729.936L835.318 730.086L831.919 732.89L833.329 734.124L833.5 734.273V734.5V741.894ZM844 740.972C845.003 740.888 846.003 740.805 847 740.723V733.972L846.571 733.257L846.5 733.138V733V724.73C846.156 724.635 845.822 724.517 845.5 724.376V729.5V729.681L845.384 729.82L843.175 732.471L843.96 734.303L844 734.397V734.5V740.972ZM921 737.519C921.836 737.525 922.669 737.532 923.5 737.541V729.618L921.553 725.724L921.5 725.618V725.5V724.09C920.173 725.278 918.421 726 916.5 726C914.298 726 912.318 725.051 910.946 723.54C910.22 724.076 909.393 724.484 908.5 724.73V725V725.118L908.447 725.224L906.5 729.118V730H921V737.519ZM924.5 737.551C927.363 737.584 930.196 737.633 933 737.696V734.603L931.54 731.197L931.5 731.103V731V726.934C928.174 726.491 925.536 723.867 925.073 720.547C924.602 720.719 924.11 720.845 923.601 720.92C923.344 721.675 922.97 722.376 922.5 723.001V725.382L924.447 729.276L924.5 729.382V729.5V737.551ZM934 737.72C938.06 737.817 942.059 737.947 946 738.106V734.603L944.54 731.197L944.5 731.103V731V721.376C943.581 721.777 942.567 722 941.5 722C940.862 722 940.242 721.92 939.65 721.77C938.995 723.837 937.467 725.516 935.5 726.376V729.5V729.681L935.384 729.82L933.175 732.471L933.96 734.303L934 734.397V734.5V737.72ZM947 738.147C948.34 738.203 949.673 738.263 951 738.326V735.638L949.571 733.257L949.5 733.138V733V724.73C949.156 724.635 948.822 724.517 948.5 724.376V729.5V729.681L948.384 729.82L946.175 732.471L946.96 734.303L947 734.397V734.5V738.147ZM954.952 724.16C955.116 724.453 955.299 724.734 955.5 725.001V726.977L950.5 729.227V724.934C950.827 724.977 951.161 725 951.5 725C952.745 725 953.919 724.697 954.952 724.16ZM945.5 730.897V722.001C946.048 722.73 946.726 723.357 947.5 723.845V729.319L945.733 731.44L945.5 730.897ZM891.976 698.5H888.167V700.505L891.976 698.5ZM887.167 701.031V698.5H881.833V701.031L884.5 702.435L887.167 701.031ZM885.574 703L887.167 702.161V703.838L885.574 703ZM883.426 703L881.833 702.161V703.838L883.426 703ZM881.833 704.968L884.5 703.565L887.167 704.968V711.031L884.5 712.435L881.833 711.031V704.968ZM885.574 713L887.167 712.161V713.838L885.574 713ZM881.833 712.161L883.426 713L881.833 713.838V712.161ZM884.5 713.565L881.833 714.968V721.031L884.5 722.435L887.167 721.031V714.968L884.5 713.565ZM887.167 722.161L885.574 723L887.167 723.838V722.161ZM883.426 723L881.833 722.161V723.838L883.426 723ZM881.833 724.968L884.5 723.565L887.167 724.968V730H881.833V724.968ZM880.833 724.365V721.635L875.5 718.828V727.172L880.833 724.365ZM875.5 728.302L880.833 725.495V730H875.5V728.302ZM888.167 721.635L893.5 718.828V727.172L888.167 724.365V721.635ZM892.926 718L888.167 720.505V715.495L892.926 718ZM880.833 711.635V714.365L875.5 717.172V708.828L880.833 711.635ZM880.833 715.495L876.074 718L880.833 720.505V715.495ZM893.5 708.828L888.167 711.635V714.365L893.5 717.172V708.828ZM888.167 710.505L892.926 708L888.167 705.495V710.505ZM880.833 704.365V701.635L875.5 698.828V707.172L880.833 704.365ZM876.074 708L880.833 705.495V710.505L876.074 708ZM888.167 701.635L893.5 698.828V707.172L888.167 704.365V701.635ZM893.5 728.302L888.167 725.495V730H893.5V728.302ZM880.833 698.5V700.505L877.024 698.5H880.833ZM934.5 726.73C933.863 726.906 933.193 727 932.5 727V730.897L932.733 731.44L934.5 729.319V726.73ZM842.5 730.897V726.845C843.274 726.357 843.952 725.73 844.5 725.001V729.319L842.733 731.44L842.5 730.897ZM829.5 727V730.773L831.157 732.223L834.5 729.464V726.845C834.084 726.583 833.696 726.28 833.341 725.943C832.217 726.614 830.904 727 829.5 727Z" fill="url(#paint1_linear)"/>
<path fill-rule="evenodd" clip-rule="evenodd" d="M1015.27 499C1016.33 499 1017.19 499.86 1017.19 500.921L1017.19 548.305L1035.58 552.479L1033.39 510.325C1033.34 509.265 1034.15 508.361 1035.21 508.306C1036.27 508.251 1037.18 509.066 1037.23 510.125L1039.48 553.363L1050.88 555.952C1051.92 556.187 1052.57 557.216 1052.33 558.251C1052.1 559.286 1051.07 559.934 1050.03 559.699L1039.68 557.35L1039.84 560.348L1028.12 618.527C1028.14 618.629 1028.15 618.734 1028.15 618.842C1028.15 619.218 1028.04 619.569 1027.85 619.866L1027.74 620.409L1041.97 718.311C1042.13 719.361 1041.4 720.336 1040.35 720.489C1039.3 720.641 1038.32 719.914 1038.17 718.864L1031.88 675.568L1017.19 678.399L1017.19 726.079C1017.19 727.14 1016.33 728 1015.27 728C1014.21 728 1013.35 727.14 1013.35 726.079L1013.35 678.43L998.923 675.649L992.641 718.864C992.488 719.914 991.513 720.641 990.463 720.489C989.413 720.336 988.686 719.361 988.839 718.311L995.331 673.652C995.299 673.442 995.302 673.223 995.345 673.003C995.376 672.843 995.425 672.693 995.491 672.552L1003.07 620.409L990.972 560.348L991.133 557.251L980.347 559.699C979.312 559.934 978.283 559.286 978.048 558.251C977.813 557.216 978.462 556.187 979.496 555.952L991.34 553.264L993.581 510.125C993.636 509.066 994.54 508.251 995.6 508.306C996.659 508.361 997.474 509.265 997.418 510.325L995.234 552.38L1013.35 548.268L1013.35 500.921C1013.35 499.86 1014.21 499 1015.27 499ZM1029.55 591.97L1024.52 616.921H1017.19V587.793L1029.55 591.97ZM1013.35 587.739V616.921H1006.29L1001.23 591.834L1013.35 587.739ZM1013.35 620.763H1006.9L999.477 671.843L1013.35 674.517L1013.35 620.763ZM1023.91 620.763H1017.19L1017.19 674.486L1031.32 671.762L1023.91 620.763ZM1035.43 562.776L1030.32 588.173L1017.19 583.737V562.776H1035.43ZM1035.92 558.934H1017.19V552.245L1035.79 556.467L1035.92 558.934ZM1013.35 558.934V552.208L995.027 556.367L994.893 558.934H1013.35ZM1013.35 562.776H995.381L1000.47 588.036L1013.35 583.683V562.776Z" fill="url(#paint2_linear)"/>
<path opacity="0.5" d="M1616.01 863C1866.42 854.724 2025.35 878.063 2111.31 885.305L2130 973H-33.938V920.477C-28.9548 909.902 -191.625 844.402 -20.4385 863C262.053 893.69 501.41 858 684.541 858C867.673 858 986.896 885.305 1170.03 885.305C1353.16 885.305 1365.61 871.276 1616.01 863Z" fill="url(#paint3_linear)"/>
<circle cx="543" cy="22" r="2" fill="white"/>
<circle cx="312" cy="76" r="2" fill="white"/>
<circle cx="471" cy="205" r="2" fill="white"/>
<circle cx="734" cy="289" r="2" fill="white"/>
<circle cx="1360" cy="66" r="2" fill="white"/>
<circle cx="790" cy="5" r="2" fill="white"/>
<circle cx="1652" cy="54" r="2" fill="white"/>
<circle cx="1396" cy="521" r="2" fill="white"/>
<circle cx="1808" cy="478" r="2" fill="white"/>
<circle cx="1896" cy="76" r="2" fill="white"/>
<circle cx="1600" cy="619" r="2" fill="white"/>
<circle cx="701" cy="449" r="2" fill="white"/>
<circle cx="128" cy="478" r="2" fill="white"/>
<circle cx="1533.33" cy="611.906" r="2" transform="rotate(-179.353 1533.33 611.906)" fill="white"/>
<circle cx="1764.92" cy="560.517" r="2" transform="rotate(-179.353 1764.92 560.517)" fill="white"/>
<circle cx="1607.39" cy="170.731" r="2" transform="rotate(-179.353 1607.39 170.731)" fill="white"/>
<circle cx="1110.02" cy="347.022" r="2" transform="rotate(-179.353 1110.02 347.022)" fill="white"/>
<circle cx="1451.02" cy="239.022" r="2" transform="rotate(-179.353 1451.02 239.022)" fill="white"/>
<circle cx="685.245" cy="614.336" r="2" transform="rotate(-179.353 685.245 614.336)" fill="white"/>
<circle cx="1286.15" cy="626.118" r="2" transform="rotate(-179.353 1286.15 626.118)" fill="white"/>
<circle cx="424.759" cy="567.394" r="2" transform="rotate(-179.353 424.759 567.394)" fill="white"/>
<circle cx="683.089" cy="103.296" r="2" transform="rotate(-179.353 683.089 103.296)" fill="white"/>
<circle cx="887.023" cy="199.022" r="2" transform="rotate(-179.353 887.023 199.022)" fill="white"/>
<circle cx="861.023" cy="495" r="2" transform="rotate(-179.353 861.023 495)" fill="white"/>
<circle cx="534.023" cy="491" r="2" transform="rotate(-179.353 534.023 491)" fill="white"/>
<circle cx="270.632" cy="141.644" r="2" transform="rotate(-179.353 270.632 141.644)" fill="white"/>
<circle cx="181.023" cy="542.642" r="2" transform="rotate(-179.353 181.023 542.642)" fill="white"/>
<circle cx="480.21" cy="3.00002" r="2" transform="rotate(-179.353 480.21 3.00002)" fill="white"/>
<circle cx="1025.02" cy="126.022" r="2" transform="rotate(-179.353 1025.02 126.022)" fill="white"/>
<circle cx="1231.02" cy="195" r="2" transform="rotate(-179.353 1231.02 195)" fill="white"/>
<circle cx="1950.52" cy="160.602" r="2" transform="rotate(-179.353 1950.52 160.602)" fill="white"/>
<defs>
<linearGradient id="paint0_linear" x1="933" y1="676.5" x2="933" y2="1110.5" gradientUnits="userSpaceOnUse">
<stop stop-color="#FCC7B2"/>
<stop offset="0.175948" stop-color="#FFA292"/>
</linearGradient>
<linearGradient id="paint1_linear" x1="1016" y1="618" x2="1016" y2="1156" gradientUnits="userSpaceOnUse">
<stop stop-color="#FD9686" stop-opacity="0.5"/>
<stop offset="0.750929" stop-color="#8A66E0"/>
<stop offset="0.97719" stop-color="#212A5D"/>
</linearGradient>
<linearGradient id="paint2_linear" x1="1015" y1="486.5" x2="1015" y2="936" gradientUnits="userSpaceOnUse">
<stop stop-color="#FCC7B2"/>
<stop offset="0.583333" stop-color="#FFA292"/>
</linearGradient>
<linearGradient id="paint3_linear" x1="1048.03" y1="870.586" x2="1048.03" y2="1020.24" gradientUnits="userSpaceOnUse">
<stop stop-color="#FCC7B2"/>
<stop offset="0.175948" stop-color="#FFA292"/>
</linearGradient>
</defs>
</svg>
