<svg>
    <g>
        <path class="st0" d="M7.6,3.5h14.5C30.7,3.5,35,6.9,35,13.6c0,3.4-1.5,6.2-4.4,8.4c4.3,1.9,6.4,5.2,6.4,9.9c0,3.7-1.3,6.6-3.8,8.7,c-1.2,1-2.5,1.8-4,2.2s-3.3,0.6-5.7,0.6h-2.3V33.2h2c1.2,0,2-0.2,2.5-0.5c0.5-0.3,0.7-0.8,0.7-1.6c0-1.3-1-1.9-3-1.9h-2.3V18.5
									c2.2,0,3.3-0.8,3.3-2.3c0-1.4-1-2.1-3-2.1h-2.2v29.3H7.6V3.5z"></path>
        <path class="st0" d="M52,3.5v40H41v-40H52z"></path>
        <path class="st0" d="M58.4,14.7h11v16.5c0,1.7,0.7,2.5,2.1,2.5c1.4,0,2.1-0.8,2.1-2.5V14.7h11v16.3c0,3.8-1.3,7-3.8,9.6
									s-5.6,3.9-9.3,3.9c-4.2,0-7.5-1.5-10-4.5c-2-2.4-3-5.6-3-9.8V14.7z"></path>
        <path class="st0" d="M119.5,30.6h-16.6c-0.3-0.8-0.4-1.6-0.4-2.3c0-1,0.2-1.9,0.5-2.9h5.6c-0.4-2.2-1.6-3.3-3.7-3.3
									c-1.4,0-2.5,0.6-3.3,1.7c-0.9,1.2-1.3,2.7-1.3,4.5c0,1.9,0.4,3.4,1.2,4.6c0.8,1.2,1.9,1.8,3.3,1.8c1.1,0,2.1-0.5,3.2-1.6l6.2,7.5
									c-2.9,2.3-6.1,3.4-9.7,3.4c-4.3,0-8-1.5-10.9-4.4c-2.9-2.9-4.4-6.5-4.4-10.8c0-4.3,1.5-7.9,4.5-10.8c3-2.9,6.6-4.4,11-4.4
									c4.2,0,7.8,1.4,10.7,4.3c2.9,2.9,4.3,6.4,4.3,10.6C119.6,29,119.6,29.7,119.5,30.6z"></path>
        <path class="st0" d="M152.9,29.6V19.1c2.4,0,3.6-0.9,3.6-2.8c0-1.7-0.9-2.5-2.8-2.5c-1.9,0-2.8,1.2-2.8,3.5v26.1h-11.9V18.6
									c0-2.6,0.3-4.7,0.8-6.3c0.5-1.7,1.4-3.2,2.7-4.6c1.4-1.6,3.2-2.8,5.3-3.8c2.1-0.9,4.3-1.4,6.5-1.4c4.1,0,7.5,1.4,10.2,4.1
									c2.8,2.7,4.1,6.1,4.1,10.2c0,3.9-1.2,7.1-3.7,9.6c-2.3,2.2-5.7,3.4-10.3,3.4L152.9,29.6z"></path>
        <path class="st0" d="M183.7,3.5v40h-11v-40H183.7z"></path>
        <path class="st0" d="M206.4,32.5v11.3c-0.9,0.2-1.7,0.2-2.5,0.2c-4.4,0-8.1-1.4-11-4.3c-2.9-2.9-4.4-6.5-4.4-10.9
									c0-4.2,1.5-7.8,4.4-10.8c3-2.9,6.6-4.4,10.8-4.4c4.7,0,8.5,1.4,11.2,4.1c2.7,2.8,4.1,6.5,4.1,11.3v14.3h-11V29.9
									c0-1.5-0.4-2.8-1.1-3.7c-0.8-0.9-1.8-1.4-3-1.4c-1.2,0-2.1,0.4-3,1.3c-0.8,0.8-1.3,1.8-1.3,3c0,1.2,0.4,2.2,1.1,3
									c0.8,0.8,1.7,1.2,2.9,1.2C204.7,33.3,205.6,33,206.4,32.5z"></path>
        <path class="st0" d="M235.2,3.5v11.2h4.9v11.6h-4.9c0,2.3,0.4,3.9,1.1,4.8s2.1,1.3,4,1.3v11.5c-0.6,0-1,0-1.3,0
									c-2.5,0-4.8-0.6-7-1.7c-2.2-1.2-4-2.7-5.3-4.7c-1.7-2.5-2.5-5.9-2.5-10v-24H235.2z"></path>
        <path class="st0" d="M274.2,30.6h-16.6c-0.3-0.8-0.4-1.6-0.4-2.3c0-1,0.2-1.9,0.5-2.9h5.6c-0.4-2.2-1.6-3.3-3.7-3.3
									c-1.4,0-2.5,0.6-3.3,1.7c-0.9,1.2-1.3,2.7-1.3,4.5c0,1.9,0.4,3.4,1.2,4.6c0.8,1.2,1.9,1.8,3.3,1.8c1.1,0,2.1-0.5,3.2-1.6l6.2,7.5
									c-2.9,2.3-6.1,3.4-9.7,3.4c-4.3,0-8-1.5-10.9-4.4c-2.9-2.9-4.4-6.5-4.4-10.8c0-4.3,1.5-7.9,4.5-10.8c3-2.9,6.6-4.4,11-4.4
									c4.2,0,7.8,1.4,10.7,4.3c2.9,2.9,4.3,6.4,4.3,10.6C274.3,29,274.3,29.7,274.2,30.6z"></path>
    </g>
</svg>