<?xml version="1.0" encoding="UTF-8"?>
<svg width="577px" height="123px" viewBox="0 0 577 123" version="1.1" xmlns="http://www.w3.org/2000/svg" xmlns:xlink="http://www.w3.org/1999/xlink">
    <!-- Generator: Sketch 51.1 (57501) - http://www.bohemiancoding.com/sketch -->
    <title>guac-off-2018-logo</title>
    <desc>Created with Sketch.</desc>
    <defs>
        <path d="M68.5292998,1.78992724 C79.4845957,5.21800983 86.2481576,10.8849993 88.3435931,25.949335 C90.4381656,41.0136706 91.2632218,57.350329 90.9275033,78.1275582 C90.5917849,98.9047874 69.8471458,129.791309 32.2207874,118.642679 C-5.05086582,106.352509 -4.62539229,69.106972 6.86584495,51.8210518 C18.3562192,34.5351315 28.2888252,21.5641955 38.5433412,10.3644643 C48.7995833,-0.834400769 57.5731408,-1.63815535 68.5292998,1.78992724 Z" id="path-1"></path>
    </defs>
    <g id="2018-Round-2" stroke="none" stroke-width="1" fill="none" fill-rule="evenodd">
        <g id="guac-off-2018-logo" transform="translate(-18.000000, -11.000000)">
            <path d="M70.98,98.4 L70.98,84.16 C70.98,79.2 68.1,79.04 65.06,79.04 C59.78,79.04 59.14,76.48 59.14,72.16 L59.14,70.56 C59.14,57.6 59.3,56.8 66.82,56.8 L89.7,56.8 C96.58,56.8 96.58,60.16 96.58,63.2 L96.58,113.12 C96.58,128.8 81.06,128.8 71.94,128.8 C46.5,128.8 18.82,117.28 18.82,70.08 C18.82,24.16 48.26,13.6 67.94,13.6 C84.58,13.6 91.3,15.36 91.3,20.32 L91.3,32.96 C91.3,35.84 89.22,36.8 86.66,36.8 C81.7,36.8 76.74,34.72 69.54,34.72 C49.22,34.72 46.82,63.04 46.82,69.6 C46.82,82.72 49.22,105.6 65.54,105.6 C68.74,105.6 70.98,104 70.98,98.4 Z M180.1,27.04 L180.1,95.52 C180.1,115.36 177.86,128.8 145.7,128.8 C111.94,128.8 109.54,115.2 109.54,94.4 C109.54,43.84 109.7,27.2 109.7,27.2 C109.7,20.8 109.7,14.4 119.3,14.4 L127.3,14.4 C136.9,14.4 136.9,20.8 136.9,27.2 L136.9,97.6 C136.9,102.4 136.9,106.4 145.7,106.4 C152.9,106.4 152.9,102.4 152.9,97.6 L152.9,27.04 C152.9,20.8 152.9,14.4 162.5,14.4 L170.5,14.4 C180.1,14.4 180.1,20.8 180.1,27.04 Z M255.46,27.2 C266.34,92.8 272.26,110.4 272.26,120 C272.26,127.36 267.3,128 258.18,128 L249.7,128 C239.78,128 244.74,104 238.34,104 L225.54,104 C219.14,104 222.82,128 213.22,128 L205.7,128 C197.38,128 192.42,127.36 192.42,120 C192.42,110.4 196.26,101.92 208.74,27.2 C210.02,19.2 213.22,14.4 219.62,14.4 L244.26,14.4 C250.66,14.4 253.86,19.2 255.46,27.2 Z M225.86,75.04 C225.7,76 225.7,76.8 225.7,77.44 C225.7,80 226.82,80 231.94,80 C236.9,80 238.18,80 238.18,77.6 C238.18,76.96 238.18,76.16 238.02,75.04 C236.1,59.36 235.46,40 231.94,40 C228.58,40 227.46,59.2 225.86,75.04 Z M281.06,69.6 C281.06,24 307.46,13.6 330.18,13.6 C334.18,13.6 336.26,15.52 336.26,18.72 L336.26,32.8 C336.26,34.4 336.26,36.8 330.18,36.8 C326.98,36.8 326.82,36.48 325.06,36.48 C309.86,36.48 309.86,64.16 309.86,69.92 C309.86,75.36 310.02,105.12 324.42,105.12 C326.5,105.12 326.5,104.8 330.18,104.8 C336.26,104.8 336.26,110.56 336.26,112.16 L336.26,122.88 C336.26,126.88 334.18,128.8 330.18,128.8 C307.46,128.8 281.06,118.4 281.06,69.6 Z M506.5,36.48 C496.58,36.48 496.58,39.36 496.58,48.8 C496.58,56.48 496.58,59.04 503.62,59.04 C510.34,59.04 511.94,58.72 514.66,58.72 C523.78,58.72 524.1,60.16 524.1,67.36 L524.1,68.8 C524.1,80.32 524.1,81.92 513.22,81.92 C510.02,81.92 504.42,81.6 502.02,81.6 C496.74,81.6 496.58,82.72 496.58,90.88 L496.58,115.2 C496.58,121.6 496.58,128 486.98,128 L478.98,128 C469.38,128 469.38,121.6 469.38,115.2 L469.38,27.2 C469.38,22.4 469.38,14.4 478.98,14.4 L518.66,14.4 C522.66,14.4 526.18,16 526.18,19.2 L526.18,32.8 C526.18,36 524.9,36.8 519.14,36.8 C515.14,36.8 514.02,36.48 506.5,36.48 Z M575.14,36.48 C565.22,36.48 565.22,39.36 565.22,48.8 C565.22,56.48 565.22,59.04 572.26,59.04 C578.98,59.04 580.58,58.72 583.3,58.72 C592.42,58.72 592.74,60.16 592.74,67.36 L592.74,68.8 C592.74,80.32 592.74,81.92 581.86,81.92 C578.66,81.92 573.06,81.6 570.66,81.6 C565.38,81.6 565.22,82.72 565.22,90.88 L565.22,115.2 C565.22,121.6 565.22,128 555.62,128 L547.62,128 C538.02,128 538.02,121.6 538.02,115.2 L538.02,27.2 C538.02,22.4 538.02,14.4 547.62,14.4 L587.3,14.4 C591.3,14.4 594.82,16 594.82,19.2 L594.82,32.8 C594.82,36 593.54,36.8 587.78,36.8 C583.78,36.8 582.66,36.48 575.14,36.48 Z" id="Guac-ff" fill="#FFFAC9"></path>
            <g id="avocado" transform="translate(366.000000, 2.000000)">
                <g id="Bitmap">
                    <mask id="mask-2" fill="white">
                        <use xlink:href="#path-1"></use>
                    </mask>
                    <g id="Mask"></g>
                </g>
                <path d="M62.2332614,21.4940715 C71.3827393,24.3555289 77.0314283,29.0858259 78.7814624,41.6601887 C80.5307757,54.2345515 81.2198336,67.8709358 80.9394533,85.2139122 C80.6590731,102.556889 63.33388,128.3382 31.9096686,119.032319 C0.781694483,108.773582 1.13703501,77.684332 10.7341123,63.2555887 C20.3304688,48.8268453 28.625832,37.9998656 37.1900432,28.6513297 C45.755696,19.3035167 53.0830627,18.6326141 62.2332614,21.4940715 Z" id="Combined-Shape" stroke="#FFFAC9" stroke-width="21"></path>
                <path d="M57.1382816,87.9479849 C54.3308645,96.7206783 45.5008245,101.841698 37.4166762,99.3846145 C29.3318826,96.9281598 25.0539751,87.8253822 27.8620375,79.0520601 C30.6694546,70.278738 39.4988493,65.158347 47.5836429,67.6154305 C55.6677912,70.0712565 59.9456987,79.1746628 57.1382816,87.9479849 Z" id="Mask" fill="#E4EF7F"></path>
            </g>
        </g>
    </g>
</svg>