<svg width="375" height="871" viewBox="0 0 375 871" fill="none" xmlns="http://www.w3.org/2000/svg">
<circle cx="261.5" cy="173.5" r="261.5" fill="url(#paint0_radial)"/>
<path d="M78 432.684C11 408.684 -38 446.684 -61 467.684L-66 722H513V569.684C511.667 539.017 497 479.084 449 484.684C389 491.684 369 432.684 320 432.684C271 432.684 260 467.684 211 467.684C162 467.684 145 456.684 78 432.684Z" fill="url(#paint1_linear)"/>
<path d="M309 499.879C376 481.516 425 510.591 448 526.659L453 720H-126V604.702C-124.667 581.238 -110 535.381 -62 539.666C-2 545.022 18 499.879 67 499.879C116 499.879 127 526.659 176 526.659C225 526.659 242 518.242 309 499.879Z" fill="url(#paint2_linear)"/>
<path fill-rule="evenodd" clip-rule="evenodd" d="M151.452 862.159L333.306 798.762C367.814 786.73 391 754.073 391 717.499C391 694.526 382.056 672.927 365.816 656.678C356.677 647.535 345.436 640.467 333.306 636.237L151.452 572.841C135.291 567.208 118.341 564.351 101.072 564.351C16.6682 564.351 -52 633.054 -52 717.5C-52 758.407 -36.0773 796.866 -7.16572 825.793C21.7452 854.718 60.1846 870.649 101.072 870.649C118.339 870.649 135.289 867.793 151.452 862.159ZM100.784 795.354C143.58 795.354 178.272 760.661 178.272 717.866C178.272 675.07 143.58 640.377 100.784 640.377C57.9881 640.377 23.2954 675.07 23.2954 717.866C23.2954 760.661 57.9881 795.354 100.784 795.354Z" fill="url(#paint3_linear)"/>
<ellipse cx="100" cy="718.5" rx="80" ry="80.5" fill="url(#paint4_linear)"/>
<path fill-rule="evenodd" clip-rule="evenodd" d="M100 309.5C101.381 309.5 102.5 310.619 102.5 312L102.5 373.661L126.433 379.094L123.584 324.237C123.512 322.858 124.572 321.682 125.951 321.611C127.329 321.539 128.505 322.599 128.577 323.978L131.5 380.244L146.343 383.613C147.689 383.919 148.533 385.258 148.227 386.604C147.922 387.951 146.582 388.794 145.236 388.489L131.769 385.432L131.972 389.333L116.721 465.043C116.743 465.176 116.754 465.312 116.754 465.451C116.754 465.941 116.614 466.397 116.37 466.783L116.228 467.491L134.749 594.892C134.947 596.258 134.001 597.527 132.634 597.726C131.268 597.924 129.999 596.978 129.801 595.611L121.61 539.27L102.5 542.954L102.5 605C102.5 606.381 101.381 607.5 100 607.5C98.6193 607.5 97.5 606.381 97.5 605L97.5 542.994L78.7272 539.376L70.552 595.611C70.3533 596.978 69.0847 597.924 67.7183 597.726C66.352 597.527 65.4053 596.258 65.604 594.892L74.0522 536.778C74.0109 536.505 74.0147 536.219 74.0701 535.932C74.1102 535.724 74.1749 535.527 74.2608 535.343L84.1248 467.491L68.3806 389.333L68.59 385.303L54.5535 388.489C53.207 388.794 51.8677 387.951 51.5621 386.604C51.2564 385.258 52.1002 383.919 53.4467 383.613L68.8595 380.114L71.7757 323.978C71.8473 322.599 73.0232 321.539 74.402 321.611C75.7809 321.682 76.8406 322.858 76.769 324.237L73.926 378.964L97.5 373.613L97.5 312C97.5 310.619 98.6193 309.5 100 309.5ZM118.582 430.483L112.042 462.951H102.5V425.047L118.582 430.483ZM97.5 424.976V462.951H88.3107L81.7345 430.305L97.5 424.976ZM97.5 467.951H89.1104L79.4473 534.422L97.5 537.902L97.5 467.951ZM111.242 467.951H102.5L102.5 537.862L120.89 534.317L111.242 467.951ZM126.235 392.493L119.578 425.542L102.5 419.769V392.493H126.235ZM126.87 387.493H102.5V378.788L126.703 384.282L126.87 387.493ZM97.5 387.493V378.74L73.6565 384.153L73.483 387.493H97.5ZM97.5 392.493H74.1175L80.7391 425.364L97.5 419.698V392.493Z" fill="#5E4DA9"/>
<defs>
<radialGradient id="paint0_radial" cx="0" cy="0" r="1" gradientUnits="userSpaceOnUse" gradientTransform="translate(261.5 173.5) rotate(90) scale(261.5)">
<stop stop-color="#FCC7B2"/>
<stop offset="1" stop-color="#FE9787" stop-opacity="0"/>
</radialGradient>
<linearGradient id="paint1_linear" x1="223.5" y1="425" x2="223.5" y2="859" gradientUnits="userSpaceOnUse">
<stop stop-color="#FCC7B2"/>
<stop offset="0.175948" stop-color="#FFA292"/>
</linearGradient>
<linearGradient id="paint2_linear" x1="163.5" y1="494" x2="163.5" y2="819" gradientUnits="userSpaceOnUse">
<stop stop-color="#FD9686"/>
<stop offset="0.622769" stop-color="#8A66E0"/>
<stop offset="0.859573" stop-color="#212A5D"/>
<stop offset="1" stop-color="#000001"/>
</linearGradient>
<linearGradient id="paint3_linear" x1="26" y1="559" x2="169" y2="941" gradientUnits="userSpaceOnUse">
<stop stop-color="#8A66E0"/>
<stop offset="1" stop-color="#212A5D"/>
</linearGradient>
<linearGradient id="paint4_linear" x1="100" y1="638" x2="100" y2="869.526" gradientUnits="userSpaceOnUse">
<stop stop-color="#FD9686"/>
<stop offset="0.622769" stop-color="#8A66E0"/>
<stop offset="0.859573" stop-color="#212A5D"/>
<stop offset="1" stop-color="#000001"/>
</linearGradient>
</defs>
</svg>
