<svg width="375" height="837" viewBox="0 0 375 837" fill="none" xmlns="http://www.w3.org/2000/svg">
<circle cx="100.5" cy="227.5" r="261.5" fill="url(#paint0_radial)"/>
<path d="M78 398.684C11 374.684 -38 412.684 -61 433.684L-66 688H513V535.684C511.667 505.017 497 445.084 449 450.684C389 457.684 369 398.684 320 398.684C271 398.684 260 433.684 211 433.684C162 433.684 145 422.684 78 398.684Z" fill="url(#paint1_linear)"/>
<path d="M309 465.879C376 447.516 425 476.591 448 492.659L453 686H-126V570.702C-124.667 547.238 -110 501.381 -62 505.666C-2 511.022 18 465.879 67 465.879C116 465.879 127 492.659 176 492.659C225 492.659 242 484.242 309 465.879Z" fill="url(#paint2_linear)"/>
<path fill-rule="evenodd" clip-rule="evenodd" d="M151.452 828.159L333.306 764.762C367.814 752.73 391 720.073 391 683.499C391 660.526 382.056 638.927 365.816 622.678C356.677 613.535 345.436 606.467 333.306 602.237L151.452 538.841C135.291 533.208 118.341 530.351 101.072 530.351C16.6682 530.351 -52 599.054 -52 683.5C-52 724.407 -36.0773 762.866 -7.16572 791.793C21.7452 820.718 60.1846 836.649 101.072 836.649C118.339 836.649 135.289 833.793 151.452 828.159ZM100.784 761.354C143.58 761.354 178.272 726.661 178.272 683.866C178.272 641.07 143.58 606.377 100.784 606.377C57.9881 606.377 23.2954 641.07 23.2954 683.866C23.2954 726.661 57.9881 761.354 100.784 761.354Z" fill="url(#paint3_linear)"/>
<ellipse cx="100" cy="684.5" rx="80" ry="80.5" fill="url(#paint4_linear)"/>
<path fill-rule="evenodd" clip-rule="evenodd" d="M100 275.5C101.381 275.5 102.5 276.619 102.5 278L102.5 339.661L126.433 345.094L123.584 290.237C123.512 288.858 124.572 287.682 125.951 287.611C127.329 287.539 128.505 288.599 128.577 289.978L131.5 346.244L146.343 349.613C147.689 349.919 148.533 351.258 148.227 352.604C147.922 353.951 146.582 354.794 145.236 354.489L131.769 351.432L131.972 355.333L116.721 431.043C116.743 431.176 116.754 431.312 116.754 431.451C116.754 431.941 116.614 432.397 116.37 432.783L116.228 433.491L134.749 560.892C134.947 562.258 134.001 563.527 132.634 563.726C131.268 563.924 129.999 562.978 129.801 561.611L121.61 505.27L102.5 508.954L102.5 571C102.5 572.381 101.381 573.5 100 573.5C98.6193 573.5 97.5 572.381 97.5 571L97.5 508.994L78.7272 505.376L70.552 561.611C70.3533 562.978 69.0847 563.924 67.7183 563.726C66.352 563.527 65.4053 562.258 65.604 560.892L74.0522 502.778C74.0109 502.505 74.0147 502.219 74.0701 501.932C74.1102 501.724 74.1749 501.527 74.2608 501.343L84.1248 433.491L68.3806 355.333L68.59 351.303L54.5535 354.489C53.207 354.794 51.8677 353.951 51.5621 352.604C51.2564 351.258 52.1002 349.919 53.4467 349.613L68.8595 346.114L71.7757 289.978C71.8473 288.599 73.0232 287.539 74.402 287.611C75.7809 287.682 76.8406 288.858 76.769 290.237L73.926 344.964L97.5 339.613L97.5 278C97.5 276.619 98.6193 275.5 100 275.5ZM118.582 396.483L112.042 428.951H102.5V391.047L118.582 396.483ZM97.5 390.976V428.951H88.3107L81.7345 396.305L97.5 390.976ZM97.5 433.951H89.1104L79.4473 500.422L97.5 503.902L97.5 433.951ZM111.242 433.951H102.5L102.5 503.862L120.89 500.317L111.242 433.951ZM126.235 358.493L119.578 391.542L102.5 385.769V358.493H126.235ZM126.87 353.493H102.5V344.788L126.703 350.282L126.87 353.493ZM97.5 353.493V344.74L73.6565 350.153L73.483 353.493H97.5ZM97.5 358.493H74.1175L80.7391 391.364L97.5 385.698V358.493Z" fill="#5E4DA9"/>
<defs>
<radialGradient id="paint0_radial" cx="0" cy="0" r="1" gradientUnits="userSpaceOnUse" gradientTransform="translate(100.5 227.5) rotate(90) scale(261.5)">
<stop stop-color="#FCC7B2"/>
<stop offset="1" stop-color="#FE9787" stop-opacity="0"/>
</radialGradient>
<linearGradient id="paint1_linear" x1="223.5" y1="391" x2="223.5" y2="825" gradientUnits="userSpaceOnUse">
<stop stop-color="#FCC7B2"/>
<stop offset="0.175948" stop-color="#FFA292"/>
</linearGradient>
<linearGradient id="paint2_linear" x1="163.5" y1="460" x2="163.5" y2="785" gradientUnits="userSpaceOnUse">
<stop stop-color="#FD9686"/>
<stop offset="0.622769" stop-color="#8A66E0"/>
<stop offset="0.859573" stop-color="#212A5D"/>
<stop offset="1" stop-color="#000001"/>
</linearGradient>
<linearGradient id="paint3_linear" x1="26" y1="525" x2="169" y2="907" gradientUnits="userSpaceOnUse">
<stop stop-color="#8A66E0"/>
<stop offset="1" stop-color="#212A5D"/>
</linearGradient>
<linearGradient id="paint4_linear" x1="100" y1="604" x2="100" y2="835.526" gradientUnits="userSpaceOnUse">
<stop stop-color="#FD9686"/>
<stop offset="0.622769" stop-color="#8A66E0"/>
<stop offset="0.859573" stop-color="#212A5D"/>
<stop offset="1" stop-color="#000001"/>
</linearGradient>
</defs>
</svg>
