<svg class="logo-popup" viewBox="0 0 146 222" xmlns="http://www.w3.org/2000/svg"><g fill="none" fill-rule="evenodd"><path d="M80.798 186.772c-1.3-2.035-2.437-3.866-3.37-5.332l4.67 4.152c-.418.41-.852.804-1.3 1.18zm-6.458 7.774s0-.04-.04-.04l5.605-4.926 2.883 4.518c-2.112.082-5.808.285-8.448.448zm-21.323-3.867l12.022-8.427 5.117-3.663.12-.12c.164.162.286.366.448.61l-.04 14.815c-.04.08-.122.122-.163.203-.04.082-.04.122-.082.204-3.168-.652-13.282-2.768-17.424-3.623zm21.08-2.973l.04-7.366 2.275 3.623 2.72 4.273c-1.667 1.506-3.346 3-5.037 4.477v-5.006h.002zm69.697-64.428h-1.624s-.162-.04-.203.122c.163.04.203 0 .203 0v.04h-3.37l-.042-.244s-.406-12.414-.324-22.915c.08-10.54.08-39.886.528-53.56.406-12.374 1.015-34.474 1.137-38.584h.202s.04-.08.122-.204c.162 0 1.178.04 1.624 0 .488-1.017.04-2.32.04-2.32-.283-.08-.893-.08-1.664-.04-.08-.163-.163-.367-.285-.53-3.33-.04-3.33-.04-4.71-.08 0 0-.246.04-.205.61l-61.248-.04c-.082-.164-.163-.327-.447-.327-.163 0-.325.162-.447.325h-.08l.04-1.547c0-.61-.854-1.18-.854-1.18L72.15.975h-.326v-.69a.285.285 0 1 0-.57 0l-.08.65h-.326V2.81s-.73.528-.772 1.057l-.04 1.628h-.122c-.08-.163-.203-.325-.487-.325-.163 0-.285.162-.407.325l-66.488-.04v-.082c-.853-.04-.853-.04-1.138.04 0 0-.406 1.262.04 2.32.488.082 1.016 0 1.016 0v-.08h.65c.163 4.72.934 29.67 1.137 34.35.204 5.21.407 40.05.447 46.276.04 5.82-.04 31.99-.04 35.284H2.856c0-.04.04-.04.04-.04s.04.04.203 0c-.04-.163-.204-.122-.204-.122H1.313s-1.463.65-1.3 3.01c.162 3.257 1.42 3.34 1.42 3.34s1.098.162 1.585.08c.487-.08.447-.285.447-.285l66.895.04.162 4.478h.284l-.082 41.432a2.642 2.642 0 0 0-.65.367c-1.42.936-1.95.976-1.705 1.383-3.413 2.28-34.363 24.135-41.064 28.816-.04-.04-.082-.04-.122-.082-.853.57-2.112 1.18-2.356 1.467 0 0 0 1.628 1.746 2.28.772-.612 1.95-1.75 1.95-1.75v-.164l22.87-15.993 3.33.732 15.92 3.296v.04c.04.082.04.123.08.164.164.244.49.325.854.366.488.04 1.056 0 1.544-.04h.16c.407-.04.692-.163.854-.367l6.62-.324 2.884-.203 14.663 23.036c-.04.08-.04.162-.04.162s.65 1.466 1.137 2.36c1.828.083 2.478-1.423 2.478-1.423-.122-.367-1.015-1.426-1.625-2.28-.08 0-.122.04-.203.04-2.843-4.477-12.022-19.088-18.44-29.22l1.584-1.467 12.39 10.99v.163s.69.854 1.177 1.343c1.504-.124 1.38-1.426 1.38-1.426-.12-.202-.932-.73-1.5-1.18-.04 0-.08.042-.08.042-1.423-1.262-7.313-6.594-12.918-11.6-.04-.08-.122-.163-.203-.163a1069.275 1069.275 0 0 0-7.555-6.757h.04s.245-.244.123-.366c-.61-.814-1.26-1.506-1.828-1.913l.203-41.636h.285l.08-4.476 62.997.042s.974-.04 3.9-.04c0 0-.042.203.446.284.488.08 1.625-.08 1.625-.08s1.3-.083 1.462-3.46c.082-2.524-1.42-3.176-1.42-3.176l-.003-.005z" fill="#000"></path><g fill="#FFF"><path d="M48.386 96.215l.527 1.75v.042h2.926v-16.24h-6.217v3.948h1.3v6.715c0 .814-.486 1.424-1.38 1.424-.853 0-1.38-.57-1.38-1.424V70.778c0-.813.527-1.343 1.38-1.343.894 0 1.34.57 1.34 1.343v6.308h4.752V70.98c0-3.54-2.52-6.47-6.173-6.47-3.655 0-6.377 2.89-6.377 6.472v21c0 3.948 2.234 6.473 5.686 6.473 1.504 0 2.926-.775 3.616-2.24zM17.518 72.895v25.07h4.874V64.998h-6.58l-1.625 12.984-.65 7.488-.69-7.488L11.1 64.998H4.4l.12 32.967h4.347v-25.07l.568 7.53 1.91 17.54h3.33l2.153-17.54.69-7.53zM32.262 92.308l.284 5.657h5.2l-3.9-32.967h-5.768l-3.9 32.967h4.59l.487-5.657h3.007zm-.406-4.68h-2.113l1.22-13.67v-.006.006l.893 13.67zM62.277 92.308l.284 5.657h5.202l-3.9-32.967h-5.768l-3.9 32.967h4.59l.487-5.657h3.007zm-1.3-18.356L59.76 87.627h2.11l-.893-13.675zM80.596 93.122h-5.89l6.213-26.374v-1.75H69.505v4.844h5.808L69.14 96.255v1.71h11.456v-4.843zM87.987 65.08H82.91v32.967h5.077V65.08zM96.598 83.07l3.737 14.895h4.183V64.996h-4.305v19.416l-.974-4.6-3.25-14.815h-4.875v32.967h4.346V78.592L96.6 83.07zM107.483 64.998v32.967h10.682v-4.884h-5.605v-9.807h3.737v-4.518h-3.737V69.76h5.605v-4.762h-10.682z"></path><g><path d="M80.067 34.593c0-.977-.284-1.384-.894-1.384h-1.34V44.4h1.34c.61 0 .894-.406.894-1.383v-8.424zm-.406 14.122h-1.827v12.82h-5.077V28.57h6.905c2.6 0 5.28 1.465 5.28 5.9v8.387c0 4.314-2.68 5.86-5.28 5.86v-.002zM63.658 62.027c-3.574 0-6.336-2.727-6.336-6.47V28.57h5.076v27.19c0 .854.528 1.343 1.218 1.343.732 0 1.3-.49 1.3-1.344V28.57h4.874v26.984c.04 3.744-2.6 6.47-6.133 6.47M47.573 44.32h7.312v3.704h-7.31l-.002-3.704zM40.953 34.593c0-.977-.284-1.384-.893-1.384h-1.34V44.4h1.34c.61 0 .894-.406.894-1.383v-8.424zm-.365 14.122H38.76v12.82h-5.077V28.57h6.905c2.6 0 5.28 1.465 5.28 5.9v8.387c0 4.314-2.68 5.86-5.28 5.86v-.002zM25.64 34.346c0-.853-.486-1.342-1.217-1.342-.73 0-1.22.49-1.22 1.343v21.41c0 .853.49 1.342 1.22 1.342s1.218-.49 1.218-1.345v-21.41zm-1.217 27.678c-3.574 0-6.418-2.686-6.418-6.634V34.714c0-3.908 2.884-6.634 6.418-6.634 3.615 0 6.417 2.726 6.417 6.634V55.39c0 3.99-2.802 6.633-6.417 6.633zM10.816 34.594c0-.977-.284-1.384-.893-1.384h-1.34v11.192h1.34c.61 0 .893-.407.893-1.384v-8.424zm-.406 14.122H8.583v12.82h-4.47l-.61-32.966h6.905c2.6 0 5.28 1.465 5.28 5.9v8.388c0 4.314-2.64 5.86-5.28 5.86l.002-.002z"></path></g></g></g></svg>