<svg width="606" height="690" viewBox="0 0 606 690" fill="none" xmlns="http://www.w3.org/2000/svg">
<path fill-rule="evenodd" clip-rule="evenodd" d="M206.176 0.5C207.557 0.5 208.676 1.61929 208.676 3V64.7008L232.433 70.0935L229.583 15.2369C229.512 13.858 230.571 12.6822 231.95 12.6106C233.329 12.5389 234.505 13.5986 234.577 14.9775L237.499 71.2435L252.343 74.6128C253.689 74.9185 254.533 76.2578 254.227 77.6042C253.922 78.9507 252.582 79.7944 251.236 79.4888L237.769 76.4319L237.955 80.0184L237.972 80.3329L237.909 80.6417L222.721 156.042C222.743 156.175 222.754 156.312 222.754 156.451C222.754 156.941 222.613 157.398 222.37 157.784L222.227 158.491L238.883 273.06C252.305 274.953 265.489 278.145 278.311 282.614L527.077 369.337C543.671 375.123 559.049 384.792 571.55 397.299C593.765 419.526 606 449.073 606 480.499C606 530.53 574.283 575.202 527.078 591.663L278.312 678.385C256.202 686.092 233.015 690 209.394 690C153.462 689.999 100.879 668.207 61.3309 628.638C21.7814 589.069 -2.44604e-06 536.459 0 480.5C4.51157e-06 377.287 74.9878 291.267 173.317 274.112L180.052 227.778C180.011 227.505 180.015 227.219 180.07 226.932C180.11 226.724 180.175 226.527 180.261 226.343L190.125 158.491L174.443 80.6417L174.381 80.3329L174.397 80.0184L174.59 76.3026L160.553 79.4888C159.207 79.7944 157.868 78.9507 157.562 77.6042C157.256 76.2578 158.1 74.9185 159.447 74.6128L174.86 71.1142L177.776 14.9775C177.847 13.5986 179.023 12.5389 180.402 12.6106C181.781 12.6822 182.841 13.858 182.769 15.2369L179.926 69.9641L203.676 64.573V3C203.676 1.61929 204.795 0.5 206.176 0.5ZM224.582 121.483L218.042 153.951H208.676V116.107L224.582 121.483ZM203.676 115.917V153.951H194.311L187.735 121.305L203.676 115.917ZM203.676 158.951H195.111L185.447 225.422L203.676 228.936V158.951ZM217.242 158.951H208.676V228.828L226.89 225.317L217.242 158.951ZM184.727 230.376L178.491 273.276C186.74 272.05 195.145 271.307 203.676 271.077V234.028L184.727 230.376ZM208.676 233.92V271.001C208.915 271 209.155 271 209.394 271C217.569 271 225.691 271.468 233.734 272.399L227.61 230.27L208.676 233.92ZM203.676 69.7002L179.657 75.1525L179.483 78.4927H203.676V69.7002ZM208.676 78.4927V69.828L232.702 75.2818L232.869 78.4927H208.676ZM208.676 83.4927H232.235L225.577 116.542L208.676 110.829V83.4927ZM203.676 83.4927V110.639L186.739 116.364L180.118 83.4927H203.676ZM209 587C267.542 587 315 539.542 315 481C315 422.458 267.542 375 209 375C150.458 375 103 422.458 103 481C103 539.542 150.458 587 209 587Z" fill="#FA5C31"/>
</svg>
