<svg width="2000" height="871" viewBox="0 0 2000 871" fill="none" xmlns="http://www.w3.org/2000/svg">
<g clip-path="url(#clip0)">
<circle cx="1238.5" cy="163.5" r="217.5" fill="url(#paint0_radial)"/>
<path d="M466.404 432.684C212.174 408.684 26.2452 446.684 -61.0276 467.684L-80 722H2117V569.684C2111.94 539.017 2056.29 479.084 1874.15 484.684C1646.49 491.684 1570.6 432.684 1384.67 432.684C1198.74 432.684 1157 467.684 971.069 467.684C785.14 467.684 720.634 456.684 466.404 432.684Z" fill="url(#paint1_linear)"/>
<path d="M1543.23 499.879C1786.93 481.516 1965.16 510.591 2048.81 526.659L2067 720H-39V604.702C-34.1504 581.238 19.1969 535.381 193.788 539.666C412.026 545.022 484.772 499.879 663 499.879C841.228 499.879 881.238 526.659 1059.47 526.659C1237.69 526.659 1299.53 518.242 1543.23 499.879Z" fill="url(#paint2_linear)"/>
<path fill-rule="evenodd" clip-rule="evenodd" d="M1021.25 862.159L1202.92 798.763C1237.39 786.73 1260.56 754.073 1260.56 717.499C1260.56 694.526 1251.62 672.927 1235.4 656.678C1226.27 647.535 1215.04 640.467 1202.92 636.237L1021.25 572.841C1005.1 567.208 988.17 564.351 970.919 564.351C886.6 564.351 818 633.054 818 717.5C818 758.407 833.907 796.866 862.789 825.793C891.672 854.718 930.073 870.649 970.919 870.649C988.169 870.649 1005.1 867.793 1021.25 862.159ZM971.195 795.354C1013.99 795.354 1048.68 760.661 1048.68 717.866C1048.68 675.07 1013.99 640.377 971.195 640.377C928.399 640.377 893.707 675.07 893.707 717.866C893.707 760.661 928.399 795.354 971.195 795.354Z" fill="url(#paint3_linear)"/>
<ellipse cx="970.411" cy="718.5" rx="80" ry="80.5" fill="url(#paint4_linear)"/>
<path fill-rule="evenodd" clip-rule="evenodd" d="M970.411 309.5C971.791 309.5 972.911 310.619 972.911 312L972.911 373.661L996.844 379.094L993.994 324.237C993.923 322.858 994.982 321.682 996.361 321.611C997.74 321.539 998.916 322.599 998.987 323.978L1001.91 380.244L1016.75 383.613C1018.1 383.919 1018.94 385.258 1018.64 386.604C1018.33 387.951 1016.99 388.794 1015.65 388.489L1002.18 385.432L1002.38 389.333L987.132 465.043C987.154 465.176 987.165 465.312 987.165 465.451C987.165 465.941 987.024 466.397 986.781 466.783L986.638 467.491L1005.16 594.892C1005.36 596.258 1004.41 597.527 1003.04 597.726C1001.68 597.924 1000.41 596.978 1000.21 595.611L992.021 539.27L972.911 542.954L972.911 605C972.911 606.381 971.791 607.5 970.411 607.5C969.03 607.5 967.911 606.381 967.911 605L967.911 542.994L949.138 539.376L940.963 595.611C940.764 596.978 939.495 597.924 938.129 597.726C936.763 597.527 935.816 596.258 936.015 594.892L944.463 536.778C944.422 536.505 944.425 536.219 944.481 535.932C944.521 535.724 944.586 535.527 944.671 535.343L954.535 467.491L938.791 389.333L939.001 385.303L924.964 388.489C923.618 388.794 922.278 387.951 921.973 386.604C921.667 385.258 922.511 383.919 923.857 383.613L939.27 380.114L942.186 323.978C942.258 322.599 943.434 321.539 944.813 321.611C946.192 321.682 947.251 322.858 947.18 324.237L944.337 378.964L967.911 373.613L967.911 312C967.911 310.619 969.03 309.5 970.411 309.5ZM988.993 430.483L982.453 462.951H972.911V425.047L988.993 430.483ZM967.911 424.976V462.951H958.721L952.145 430.305L967.911 424.976ZM967.911 467.951H959.521L949.858 534.422L967.911 537.902L967.911 467.951ZM981.653 467.951H972.911L972.911 537.862L991.301 534.317L981.653 467.951ZM996.646 392.493L989.988 425.542L972.911 419.769V392.493H996.646ZM997.28 387.493H972.911V378.788L997.113 384.282L997.28 387.493ZM967.911 387.493V378.74L944.067 384.153L943.894 387.493H967.911ZM967.911 392.493H944.528L951.15 425.364L967.911 419.698V392.493Z" fill="#5E4DA9"/>
</g>
<defs>
<radialGradient id="paint0_radial" cx="0" cy="0" r="1" gradientUnits="userSpaceOnUse" gradientTransform="translate(1238.5 163.5) rotate(90) scale(217.5)">
<stop stop-color="#FCC7B2"/>
<stop offset="1" stop-color="#FE9787" stop-opacity="0"/>
</radialGradient>
<linearGradient id="paint1_linear" x1="1018.5" y1="425" x2="1018.5" y2="859" gradientUnits="userSpaceOnUse">
<stop stop-color="#FCC7B2"/>
<stop offset="0.175948" stop-color="#FFA292"/>
</linearGradient>
<linearGradient id="paint2_linear" x1="1014" y1="494" x2="1014" y2="819" gradientUnits="userSpaceOnUse">
<stop stop-color="#FD9686"/>
<stop offset="0.622769" stop-color="#8A66E0"/>
<stop offset="0.859573" stop-color="#212A5D"/>
<stop offset="1" stop-color="#000001"/>
</linearGradient>
<linearGradient id="paint3_linear" x1="895.922" y1="559" x2="1039.03" y2="940.906" gradientUnits="userSpaceOnUse">
<stop stop-color="#8A66E0"/>
<stop offset="1" stop-color="#212A5D"/>
</linearGradient>
<linearGradient id="paint4_linear" x1="970.411" y1="638" x2="970.411" y2="869.526" gradientUnits="userSpaceOnUse">
<stop stop-color="#FD9686"/>
<stop offset="0.622769" stop-color="#8A66E0"/>
<stop offset="0.859573" stop-color="#212A5D"/>
<stop offset="1" stop-color="#000001"/>
</linearGradient>
<clipPath id="clip0">
<rect width="2000" height="871" fill="white"/>
</clipPath>
</defs>
</svg>
